# Blender v2.78 (sub 0) OBJ File: 'skyboxCube.blend'
# www.blender.org
o Cube.007
v 1.000000 -1.000000 -1.000000
v -1.000000 1.000000 -1.000000
v 1.000000 1.000000 -1.000000
v 1.000000 0.999999 1.000000
v -1.000000 -1.000000 1.000000
v 0.999999 -1.000001 1.000000
v -1.000000 -1.000000 -1.000000
v -1.000000 1.000000 1.000000
vt 0.5000 0.3340
vt 0.4995 0.6660
vt 0.7500 0.6660
vt 0.2505 0.6656
vt 0.2500 0.3340
vt 0.0001 0.3340
vt 0.5000 0.0019
vt 0.9999 0.3340
vt 0.7500 0.3340
vt 0.2505 0.9992
vt 0.0001 0.6660
vt 0.2500 0.0019
vt 0.9999 0.6660
vt 0.4995 0.9996
vn 0.0000 -0.0000 1.0000
vn 0.0000 0.0000 -1.0000
vn -1.0000 0.0000 -0.0000
vn 0.0000 1.0000 0.0000
vn 1.0000 0.0000 0.0000
vn -0.0000 -1.0000 -0.0000
s 1
f 1/1/1 3/2/1 2/3/1
f 4/4/2 6/5/2 5/6/2
f 4/4/3 3/2/3 1/1/3
f 6/5/4 1/1/4 7/7/4
f 5/8/5 7/9/5 2/3/5
f 3/2/6 4/4/6 8/10/6
f 1/1/1 2/3/1 7/9/1
f 4/4/2 5/6/2 8/11/2
f 4/4/3 1/1/3 6/5/3
f 6/5/4 7/7/4 5/12/4
f 5/8/5 2/3/5 8/13/5
f 3/2/6 8/10/6 2/14/6
